<mxfile host="app.diagrams.net" modified="2023-08-17T13:10:37.119Z" agent="Mozilla/5.0 (Macintosh; Intel Mac OS X 10_15_7) AppleWebKit/537.36 (KHTML, like Gecko) Chrome/115.0.0.0 Safari/537.36" etag="FeAqgbj-MAFiYmR3HMz6" version="21.6.6" type="github">
  <diagram name="Page-1" id="Dqp-5Hm9qnmz3WRRqfo1">
    <mxGraphModel dx="1990" dy="1087" grid="1" gridSize="10" guides="1" tooltips="1" connect="1" arrows="1" fold="1" page="1" pageScale="1" pageWidth="850" pageHeight="1100" math="0" shadow="0">
      <root>
        <mxCell id="0" />
        <mxCell id="1" parent="0" />
        <mxCell id="OUmWpfD44DdJ5hgjWDVa-1" value="" style="rounded=1;whiteSpace=wrap;html=1;" vertex="1" parent="1">
          <mxGeometry x="170" y="45" width="580" height="550" as="geometry" />
        </mxCell>
        <mxCell id="OUmWpfD44DdJ5hgjWDVa-2" value="Payment Integration and Licensing" style="rounded=1;whiteSpace=wrap;html=1;" vertex="1" parent="1">
          <mxGeometry x="300" y="275" width="120" height="60" as="geometry" />
        </mxCell>
        <mxCell id="OUmWpfD44DdJ5hgjWDVa-4" value="Emulator Interaction" style="rounded=1;whiteSpace=wrap;html=1;" vertex="1" parent="1">
          <mxGeometry x="300" y="370" width="120" height="60" as="geometry" />
        </mxCell>
        <mxCell id="OUmWpfD44DdJ5hgjWDVa-6" value="UI and Configuration" style="rounded=1;whiteSpace=wrap;html=1;" vertex="1" parent="1">
          <mxGeometry x="290" y="100" width="120" height="60" as="geometry" />
        </mxCell>
        <mxCell id="OUmWpfD44DdJ5hgjWDVa-7" value="User Support and Resources" style="rounded=1;whiteSpace=wrap;html=1;" vertex="1" parent="1">
          <mxGeometry x="300" y="190" width="120" height="60" as="geometry" />
        </mxCell>
        <mxCell id="OUmWpfD44DdJ5hgjWDVa-14" value="&lt;b&gt;Bot System&lt;/b&gt;" style="text;html=1;strokeColor=none;fillColor=none;align=center;verticalAlign=middle;whiteSpace=wrap;rounded=0;" vertex="1" parent="1">
          <mxGeometry x="411.25" width="105" height="30" as="geometry" />
        </mxCell>
        <mxCell id="OUmWpfD44DdJ5hgjWDVa-15" value="User&lt;br&gt;" style="shape=umlActor;verticalLabelPosition=bottom;verticalAlign=top;html=1;" vertex="1" parent="1">
          <mxGeometry x="60" y="290" width="30" height="60" as="geometry" />
        </mxCell>
        <mxCell id="OUmWpfD44DdJ5hgjWDVa-20" value="Version Control Syystem" style="shape=cylinder3;whiteSpace=wrap;html=1;boundedLbl=1;backgroundOutline=1;size=15;" vertex="1" parent="1">
          <mxGeometry x="60" y="700" width="190" height="60" as="geometry" />
        </mxCell>
        <mxCell id="OUmWpfD44DdJ5hgjWDVa-94" style="edgeStyle=orthogonalEdgeStyle;rounded=0;orthogonalLoop=1;jettySize=auto;html=1;entryX=0.593;entryY=0.998;entryDx=0;entryDy=0;entryPerimeter=0;" edge="1" parent="1" source="OUmWpfD44DdJ5hgjWDVa-21" target="OUmWpfD44DdJ5hgjWDVa-1">
          <mxGeometry relative="1" as="geometry" />
        </mxCell>
        <mxCell id="OUmWpfD44DdJ5hgjWDVa-21" value="Microservices" style="shape=cylinder3;whiteSpace=wrap;html=1;boundedLbl=1;backgroundOutline=1;size=15;" vertex="1" parent="1">
          <mxGeometry x="420" y="840" width="190" height="60" as="geometry" />
        </mxCell>
        <mxCell id="OUmWpfD44DdJ5hgjWDVa-24" value="" style="endArrow=classic;html=1;rounded=0;exitX=0;exitY=0.5;exitDx=0;exitDy=0;" edge="1" parent="1" source="OUmWpfD44DdJ5hgjWDVa-1" target="OUmWpfD44DdJ5hgjWDVa-28">
          <mxGeometry width="50" height="50" relative="1" as="geometry">
            <mxPoint x="160" y="280" as="sourcePoint" />
            <mxPoint x="210" y="230" as="targetPoint" />
            <Array as="points">
              <mxPoint x="260" y="450" />
            </Array>
          </mxGeometry>
        </mxCell>
        <mxCell id="OUmWpfD44DdJ5hgjWDVa-25" value="" style="endArrow=classic;html=1;rounded=0;entryX=0;entryY=1;entryDx=0;entryDy=0;exitX=0;exitY=0.5;exitDx=0;exitDy=0;" edge="1" parent="1" source="OUmWpfD44DdJ5hgjWDVa-1">
          <mxGeometry width="50" height="50" relative="1" as="geometry">
            <mxPoint x="160" y="300" as="sourcePoint" />
            <mxPoint x="290" y="140" as="targetPoint" />
          </mxGeometry>
        </mxCell>
        <mxCell id="OUmWpfD44DdJ5hgjWDVa-26" value="" style="endArrow=classic;html=1;rounded=0;exitX=0;exitY=0.5;exitDx=0;exitDy=0;entryX=-0.033;entryY=0.617;entryDx=0;entryDy=0;entryPerimeter=0;" edge="1" parent="1" source="OUmWpfD44DdJ5hgjWDVa-1" target="OUmWpfD44DdJ5hgjWDVa-2">
          <mxGeometry width="50" height="50" relative="1" as="geometry">
            <mxPoint x="180" y="300" as="sourcePoint" />
            <mxPoint x="230" y="250" as="targetPoint" />
          </mxGeometry>
        </mxCell>
        <mxCell id="OUmWpfD44DdJ5hgjWDVa-27" value="" style="endArrow=classic;html=1;rounded=0;exitX=1;exitY=0.3333333333333333;exitDx=0;exitDy=0;exitPerimeter=0;entryX=0;entryY=0.5;entryDx=0;entryDy=0;" edge="1" parent="1" source="OUmWpfD44DdJ5hgjWDVa-15" target="OUmWpfD44DdJ5hgjWDVa-1">
          <mxGeometry width="50" height="50" relative="1" as="geometry">
            <mxPoint x="190" y="310" as="sourcePoint" />
            <mxPoint x="240" y="260" as="targetPoint" />
          </mxGeometry>
        </mxCell>
        <mxCell id="OUmWpfD44DdJ5hgjWDVa-28" value="Task Automation Logic" style="rounded=1;whiteSpace=wrap;html=1;" vertex="1" parent="1">
          <mxGeometry x="290" y="460" width="120" height="60" as="geometry" />
        </mxCell>
        <mxCell id="OUmWpfD44DdJ5hgjWDVa-31" value="Configure Tasks" style="text;html=1;strokeColor=none;fillColor=none;align=center;verticalAlign=middle;whiteSpace=wrap;rounded=0;" vertex="1" parent="1">
          <mxGeometry x="170" y="220" width="60" height="30" as="geometry" />
        </mxCell>
        <mxCell id="OUmWpfD44DdJ5hgjWDVa-35" value="&lt;div&gt;Perform Task&lt;/div&gt;&lt;div&gt;&lt;br&gt;&lt;/div&gt;" style="text;html=1;strokeColor=none;fillColor=none;align=center;verticalAlign=middle;whiteSpace=wrap;rounded=0;" vertex="1" parent="1">
          <mxGeometry x="200" y="410" width="60" height="30" as="geometry" />
        </mxCell>
        <mxCell id="OUmWpfD44DdJ5hgjWDVa-36" value="" style="endArrow=classic;html=1;rounded=0;entryX=0;entryY=0.5;entryDx=0;entryDy=0;" edge="1" parent="1" target="OUmWpfD44DdJ5hgjWDVa-7">
          <mxGeometry width="50" height="50" relative="1" as="geometry">
            <mxPoint x="160" y="320" as="sourcePoint" />
            <mxPoint x="300" y="235" as="targetPoint" />
          </mxGeometry>
        </mxCell>
        <mxCell id="OUmWpfD44DdJ5hgjWDVa-33" value="Access Support" style="text;html=1;strokeColor=none;fillColor=none;align=center;verticalAlign=middle;whiteSpace=wrap;rounded=0;" vertex="1" parent="1">
          <mxGeometry x="230" y="245" width="60" height="30" as="geometry" />
        </mxCell>
        <mxCell id="OUmWpfD44DdJ5hgjWDVa-37" value="BotSys" style="rounded=1;whiteSpace=wrap;html=1;" vertex="1" parent="1">
          <mxGeometry x="810" y="275" width="120" height="60" as="geometry" />
        </mxCell>
        <mxCell id="OUmWpfD44DdJ5hgjWDVa-38" value="" style="endArrow=classic;html=1;rounded=0;entryX=1;entryY=0.5;entryDx=0;entryDy=0;entryPerimeter=0;exitX=0.655;exitY=0.882;exitDx=0;exitDy=0;exitPerimeter=0;" edge="1" parent="1" source="OUmWpfD44DdJ5hgjWDVa-1" target="OUmWpfD44DdJ5hgjWDVa-20">
          <mxGeometry width="50" height="50" relative="1" as="geometry">
            <mxPoint x="530" y="530" as="sourcePoint" />
            <mxPoint x="450" y="710" as="targetPoint" />
            <Array as="points">
              <mxPoint x="550" y="730" />
            </Array>
          </mxGeometry>
        </mxCell>
        <mxCell id="OUmWpfD44DdJ5hgjWDVa-39" value="Check for updates" style="text;html=1;strokeColor=none;fillColor=none;align=center;verticalAlign=middle;whiteSpace=wrap;rounded=0;" vertex="1" parent="1">
          <mxGeometry x="290" y="700" width="60" height="30" as="geometry" />
        </mxCell>
        <mxCell id="OUmWpfD44DdJ5hgjWDVa-45" value="" style="endArrow=classic;html=1;rounded=0;exitX=0.5;exitY=0;exitDx=0;exitDy=0;entryX=1;entryY=0.5;entryDx=0;entryDy=0;" edge="1" parent="1" source="OUmWpfD44DdJ5hgjWDVa-37" target="OUmWpfD44DdJ5hgjWDVa-6">
          <mxGeometry width="50" height="50" relative="1" as="geometry">
            <mxPoint x="810" y="270" as="sourcePoint" />
            <mxPoint x="430" y="130" as="targetPoint" />
            <Array as="points">
              <mxPoint x="870" y="130" />
            </Array>
          </mxGeometry>
        </mxCell>
        <mxCell id="OUmWpfD44DdJ5hgjWDVa-46" value="" style="endArrow=classic;html=1;rounded=0;exitX=0.25;exitY=0;exitDx=0;exitDy=0;entryX=1;entryY=0.5;entryDx=0;entryDy=0;" edge="1" parent="1" source="OUmWpfD44DdJ5hgjWDVa-37" target="OUmWpfD44DdJ5hgjWDVa-7">
          <mxGeometry width="50" height="50" relative="1" as="geometry">
            <mxPoint x="880" y="560" as="sourcePoint" />
            <mxPoint x="930" y="510" as="targetPoint" />
            <Array as="points">
              <mxPoint x="840" y="220" />
            </Array>
          </mxGeometry>
        </mxCell>
        <mxCell id="OUmWpfD44DdJ5hgjWDVa-47" value="" style="endArrow=classic;html=1;rounded=0;exitX=0.383;exitY=0.017;exitDx=0;exitDy=0;exitPerimeter=0;entryX=1;entryY=0.75;entryDx=0;entryDy=0;" edge="1" parent="1" source="OUmWpfD44DdJ5hgjWDVa-37" target="OUmWpfD44DdJ5hgjWDVa-5">
          <mxGeometry width="50" height="50" relative="1" as="geometry">
            <mxPoint x="890" y="570" as="sourcePoint" />
            <mxPoint x="940" y="520" as="targetPoint" />
            <Array as="points">
              <mxPoint x="856" y="145" />
            </Array>
          </mxGeometry>
        </mxCell>
        <mxCell id="OUmWpfD44DdJ5hgjWDVa-48" value="" style="endArrow=classic;html=1;rounded=0;exitX=0;exitY=0.5;exitDx=0;exitDy=0;entryX=1;entryY=0.5;entryDx=0;entryDy=0;" edge="1" parent="1" source="OUmWpfD44DdJ5hgjWDVa-37" target="OUmWpfD44DdJ5hgjWDVa-2">
          <mxGeometry width="50" height="50" relative="1" as="geometry">
            <mxPoint x="900" y="580" as="sourcePoint" />
            <mxPoint x="950" y="530" as="targetPoint" />
          </mxGeometry>
        </mxCell>
        <mxCell id="OUmWpfD44DdJ5hgjWDVa-49" value="" style="endArrow=classic;html=1;rounded=0;exitX=0;exitY=0.892;exitDx=0;exitDy=0;exitPerimeter=0;entryX=1.008;entryY=0.9;entryDx=0;entryDy=0;entryPerimeter=0;" edge="1" parent="1" source="OUmWpfD44DdJ5hgjWDVa-37" target="OUmWpfD44DdJ5hgjWDVa-2">
          <mxGeometry width="50" height="50" relative="1" as="geometry">
            <mxPoint x="810" y="317.5" as="sourcePoint" />
            <mxPoint x="430" y="330" as="targetPoint" />
          </mxGeometry>
        </mxCell>
        <mxCell id="OUmWpfD44DdJ5hgjWDVa-50" value="" style="endArrow=classic;html=1;rounded=0;exitX=1;exitY=0.5;exitDx=0;exitDy=0;entryX=0.5;entryY=1;entryDx=0;entryDy=0;" edge="1" parent="1" source="OUmWpfD44DdJ5hgjWDVa-37" target="OUmWpfD44DdJ5hgjWDVa-2">
          <mxGeometry width="50" height="50" relative="1" as="geometry">
            <mxPoint x="920" y="600" as="sourcePoint" />
            <mxPoint x="970" y="550" as="targetPoint" />
            <Array as="points">
              <mxPoint x="930" y="360" />
              <mxPoint x="540" y="360" />
              <mxPoint x="360" y="360" />
            </Array>
          </mxGeometry>
        </mxCell>
        <mxCell id="OUmWpfD44DdJ5hgjWDVa-51" value="" style="endArrow=classic;html=1;rounded=0;exitX=0.5;exitY=1;exitDx=0;exitDy=0;entryX=1;entryY=0.5;entryDx=0;entryDy=0;" edge="1" parent="1" source="OUmWpfD44DdJ5hgjWDVa-37" target="OUmWpfD44DdJ5hgjWDVa-4">
          <mxGeometry width="50" height="50" relative="1" as="geometry">
            <mxPoint x="930" y="610" as="sourcePoint" />
            <mxPoint x="990" y="520" as="targetPoint" />
            <Array as="points">
              <mxPoint x="870" y="400" />
            </Array>
          </mxGeometry>
        </mxCell>
        <mxCell id="OUmWpfD44DdJ5hgjWDVa-52" value="" style="endArrow=classic;html=1;rounded=0;exitX=0.25;exitY=1;exitDx=0;exitDy=0;entryX=1;entryY=0.75;entryDx=0;entryDy=0;" edge="1" parent="1" source="OUmWpfD44DdJ5hgjWDVa-37" target="OUmWpfD44DdJ5hgjWDVa-28">
          <mxGeometry width="50" height="50" relative="1" as="geometry">
            <mxPoint x="940" y="620" as="sourcePoint" />
            <mxPoint x="990" y="570" as="targetPoint" />
            <Array as="points">
              <mxPoint x="840" y="510" />
            </Array>
          </mxGeometry>
        </mxCell>
        <mxCell id="OUmWpfD44DdJ5hgjWDVa-53" value="" style="endArrow=classic;html=1;rounded=0;exitX=0.083;exitY=0.017;exitDx=0;exitDy=0;exitPerimeter=0;entryX=0.983;entryY=0.367;entryDx=0;entryDy=0;entryPerimeter=0;" edge="1" parent="1" source="OUmWpfD44DdJ5hgjWDVa-37" target="OUmWpfD44DdJ5hgjWDVa-9">
          <mxGeometry width="50" height="50" relative="1" as="geometry">
            <mxPoint x="950" y="630" as="sourcePoint" />
            <mxPoint x="1000" y="580" as="targetPoint" />
            <Array as="points">
              <mxPoint x="820" y="202" />
            </Array>
          </mxGeometry>
        </mxCell>
        <mxCell id="OUmWpfD44DdJ5hgjWDVa-54" value="" style="endArrow=classic;html=1;rounded=0;exitX=0;exitY=0.25;exitDx=0;exitDy=0;entryX=1;entryY=0.25;entryDx=0;entryDy=0;" edge="1" parent="1" source="OUmWpfD44DdJ5hgjWDVa-37" target="OUmWpfD44DdJ5hgjWDVa-11">
          <mxGeometry width="50" height="50" relative="1" as="geometry">
            <mxPoint x="960" y="640" as="sourcePoint" />
            <mxPoint x="1010" y="590" as="targetPoint" />
          </mxGeometry>
        </mxCell>
        <mxCell id="OUmWpfD44DdJ5hgjWDVa-55" value="" style="endArrow=classic;html=1;rounded=0;exitX=0.75;exitY=1;exitDx=0;exitDy=0;entryX=1;entryY=0.5;entryDx=0;entryDy=0;" edge="1" parent="1" source="OUmWpfD44DdJ5hgjWDVa-37" target="OUmWpfD44DdJ5hgjWDVa-13">
          <mxGeometry width="50" height="50" relative="1" as="geometry">
            <mxPoint x="970" y="650" as="sourcePoint" />
            <mxPoint x="1020" y="600" as="targetPoint" />
            <Array as="points">
              <mxPoint x="900" y="490" />
            </Array>
          </mxGeometry>
        </mxCell>
        <mxCell id="OUmWpfD44DdJ5hgjWDVa-5" value="Image Recognition" style="rounded=1;whiteSpace=wrap;html=1;labelBackgroundColor=default;" vertex="1" parent="1">
          <mxGeometry x="490" y="100" width="120" height="60" as="geometry" />
        </mxCell>
        <mxCell id="OUmWpfD44DdJ5hgjWDVa-34" value="Purchase License" style="text;html=1;strokeColor=none;fillColor=none;align=center;verticalAlign=middle;whiteSpace=wrap;rounded=0;" vertex="1" parent="1">
          <mxGeometry x="220" y="305" width="60" height="30" as="geometry" />
        </mxCell>
        <mxCell id="OUmWpfD44DdJ5hgjWDVa-9" value="Error Handling and Recovery" style="rounded=1;whiteSpace=wrap;html=1;" vertex="1" parent="1">
          <mxGeometry x="500" y="180" width="120" height="60" as="geometry" />
        </mxCell>
        <mxCell id="OUmWpfD44DdJ5hgjWDVa-11" value="Backend Management" style="rounded=1;whiteSpace=wrap;html=1;" vertex="1" parent="1">
          <mxGeometry x="500" y="275" width="120" height="60" as="geometry" />
        </mxCell>
        <mxCell id="OUmWpfD44DdJ5hgjWDVa-60" value=" Handle payment" style="text;html=1;strokeColor=none;fillColor=none;align=center;verticalAlign=middle;whiteSpace=wrap;rounded=0;" vertex="1" parent="1">
          <mxGeometry x="640" y="330" width="70" height="30" as="geometry" />
        </mxCell>
        <mxCell id="OUmWpfD44DdJ5hgjWDVa-61" value="Integrate payment gateway API" style="text;html=1;strokeColor=none;fillColor=none;align=center;verticalAlign=middle;whiteSpace=wrap;rounded=0;" vertex="1" parent="1">
          <mxGeometry x="390" y="335" width="160" height="30" as="geometry" />
        </mxCell>
        <mxCell id="OUmWpfD44DdJ5hgjWDVa-62" value="Execute in-game actions" style="text;html=1;strokeColor=none;fillColor=none;align=center;verticalAlign=middle;whiteSpace=wrap;rounded=0;" vertex="1" parent="1">
          <mxGeometry x="381.25" y="520" width="150" height="30" as="geometry" />
        </mxCell>
        <mxCell id="OUmWpfD44DdJ5hgjWDVa-63" value="Simulate interactions" style="text;html=1;strokeColor=none;fillColor=none;align=center;verticalAlign=middle;whiteSpace=wrap;rounded=0;" vertex="1" parent="1">
          <mxGeometry x="408.75" y="400" width="110" height="30" as="geometry" />
        </mxCell>
        <mxCell id="OUmWpfD44DdJ5hgjWDVa-64" value="Apply updates" style="text;html=1;strokeColor=none;fillColor=none;align=center;verticalAlign=middle;whiteSpace=wrap;rounded=0;" vertex="1" parent="1">
          <mxGeometry x="850" y="490" width="110" height="30" as="geometry" />
        </mxCell>
        <mxCell id="OUmWpfD44DdJ5hgjWDVa-67" value="Access user support interface" style="text;html=1;strokeColor=none;fillColor=none;align=center;verticalAlign=middle;whiteSpace=wrap;rounded=0;" vertex="1" parent="1">
          <mxGeometry x="420" y="180" width="72.5" height="30" as="geometry" />
        </mxCell>
        <mxCell id="OUmWpfD44DdJ5hgjWDVa-68" value="Handle errors" style="text;html=1;strokeColor=none;fillColor=none;align=center;verticalAlign=middle;whiteSpace=wrap;rounded=0;" vertex="1" parent="1">
          <mxGeometry x="670" y="170" width="60" height="30" as="geometry" />
        </mxCell>
        <mxCell id="OUmWpfD44DdJ5hgjWDVa-69" value="Check payment required" style="text;html=1;strokeColor=none;fillColor=none;align=center;verticalAlign=middle;whiteSpace=wrap;rounded=0;" vertex="1" parent="1">
          <mxGeometry x="420" y="270" width="80" height="30" as="geometry" />
        </mxCell>
        <mxCell id="OUmWpfD44DdJ5hgjWDVa-71" value="Recognize UI elements" style="text;html=1;strokeColor=none;fillColor=none;align=center;verticalAlign=middle;whiteSpace=wrap;rounded=0;" vertex="1" parent="1">
          <mxGeometry x="770" y="160" width="90" height="30" as="geometry" />
        </mxCell>
        <mxCell id="OUmWpfD44DdJ5hgjWDVa-72" value="Configure tasks and settings" style="text;html=1;strokeColor=none;fillColor=none;align=center;verticalAlign=middle;whiteSpace=wrap;rounded=0;" vertex="1" parent="1">
          <mxGeometry x="411.25" y="90" width="90" height="30" as="geometry" />
        </mxCell>
        <mxCell id="OUmWpfD44DdJ5hgjWDVa-59" value="Manage backend processes" style="text;html=1;strokeColor=none;fillColor=none;align=center;verticalAlign=middle;whiteSpace=wrap;rounded=0;" vertex="1" parent="1">
          <mxGeometry x="650" y="245" width="80" height="30" as="geometry" />
        </mxCell>
        <mxCell id="OUmWpfD44DdJ5hgjWDVa-80" value="Bot Application" style="shape=cylinder3;whiteSpace=wrap;html=1;boundedLbl=1;backgroundOutline=1;size=15;" vertex="1" parent="1">
          <mxGeometry x="790" y="690" width="190" height="60" as="geometry" />
        </mxCell>
        <mxCell id="OUmWpfD44DdJ5hgjWDVa-81" value="" style="endArrow=classic;html=1;rounded=0;entryX=0;entryY=0.5;entryDx=0;entryDy=0;exitX=0.5;exitY=1;exitDx=0;exitDy=0;entryPerimeter=0;" edge="1" parent="1" source="OUmWpfD44DdJ5hgjWDVa-11" target="OUmWpfD44DdJ5hgjWDVa-80">
          <mxGeometry width="50" height="50" relative="1" as="geometry">
            <mxPoint x="810" y="710" as="sourcePoint" />
            <mxPoint x="590" y="350" as="targetPoint" />
            <Array as="points">
              <mxPoint x="560" y="720" />
            </Array>
          </mxGeometry>
        </mxCell>
        <mxCell id="OUmWpfD44DdJ5hgjWDVa-13" value="Updates and Maintenance" style="rounded=1;whiteSpace=wrap;html=1;" vertex="1" parent="1">
          <mxGeometry x="500" y="460" width="120" height="60" as="geometry" />
        </mxCell>
        <mxCell id="OUmWpfD44DdJ5hgjWDVa-10" value="Security and Fair Play" style="rounded=1;whiteSpace=wrap;html=1;" vertex="1" parent="1">
          <mxGeometry x="500" y="370" width="120" height="60" as="geometry" />
        </mxCell>
        <mxCell id="OUmWpfD44DdJ5hgjWDVa-83" value="&amp;nbsp;Create APIs &lt;br&gt;&amp;nbsp;" style="text;html=1;strokeColor=none;fillColor=none;align=center;verticalAlign=middle;whiteSpace=wrap;rounded=0;" vertex="1" parent="1">
          <mxGeometry x="640" y="690" width="100" height="30" as="geometry" />
        </mxCell>
        <mxCell id="OUmWpfD44DdJ5hgjWDVa-84" value="" style="endArrow=classic;html=1;rounded=0;exitX=0.25;exitY=1;exitDx=0;exitDy=0;entryX=0.567;entryY=0.975;entryDx=0;entryDy=0;entryPerimeter=0;" edge="1" parent="1" source="OUmWpfD44DdJ5hgjWDVa-28" target="OUmWpfD44DdJ5hgjWDVa-37">
          <mxGeometry width="50" height="50" relative="1" as="geometry">
            <mxPoint x="400" y="510" as="sourcePoint" />
            <mxPoint x="900" y="580" as="targetPoint" />
            <Array as="points">
              <mxPoint x="320" y="580" />
              <mxPoint x="878" y="580" />
            </Array>
          </mxGeometry>
        </mxCell>
        <mxCell id="OUmWpfD44DdJ5hgjWDVa-85" value="&amp;nbsp;Develop scripting logic &amp;amp;&lt;br&gt;&amp;nbsp;Implement decision-making&lt;br&gt;" style="text;html=1;align=center;verticalAlign=middle;resizable=0;points=[];autosize=1;strokeColor=none;fillColor=none;" vertex="1" parent="1">
          <mxGeometry x="725" y="573" width="170" height="40" as="geometry" />
        </mxCell>
        <mxCell id="OUmWpfD44DdJ5hgjWDVa-86" value="" style="endArrow=classic;html=1;rounded=0;entryX=0.867;entryY=0.008;entryDx=0;entryDy=0;entryPerimeter=0;exitX=1;exitY=1;exitDx=0;exitDy=0;" edge="1" parent="1" source="OUmWpfD44DdJ5hgjWDVa-9" target="OUmWpfD44DdJ5hgjWDVa-37">
          <mxGeometry width="50" height="50" relative="1" as="geometry">
            <mxPoint x="460" y="370" as="sourcePoint" />
            <mxPoint x="510" y="320" as="targetPoint" />
            <Array as="points">
              <mxPoint x="914" y="240" />
            </Array>
          </mxGeometry>
        </mxCell>
        <mxCell id="OUmWpfD44DdJ5hgjWDVa-87" value="" style="endArrow=classic;html=1;rounded=0;entryX=0.858;entryY=1.008;entryDx=0;entryDy=0;entryPerimeter=0;exitX=1;exitY=0.75;exitDx=0;exitDy=0;" edge="1" parent="1" source="OUmWpfD44DdJ5hgjWDVa-10" target="OUmWpfD44DdJ5hgjWDVa-37">
          <mxGeometry width="50" height="50" relative="1" as="geometry">
            <mxPoint x="1010" y="660" as="sourcePoint" />
            <mxPoint x="1060" y="610" as="targetPoint" />
            <Array as="points">
              <mxPoint x="913" y="415" />
            </Array>
          </mxGeometry>
        </mxCell>
        <mxCell id="OUmWpfD44DdJ5hgjWDVa-88" value="Implement error handling" style="text;html=1;align=center;verticalAlign=middle;resizable=0;points=[];autosize=1;strokeColor=none;fillColor=none;" vertex="1" parent="1">
          <mxGeometry x="910" y="240" width="160" height="30" as="geometry" />
        </mxCell>
        <mxCell id="OUmWpfD44DdJ5hgjWDVa-89" value="implement security measures" style="text;html=1;align=center;verticalAlign=middle;resizable=0;points=[];autosize=1;strokeColor=none;fillColor=none;" vertex="1" parent="1">
          <mxGeometry x="610" y="410" width="180" height="30" as="geometry" />
        </mxCell>
        <mxCell id="OUmWpfD44DdJ5hgjWDVa-95" value=" Design modular architecture" style="text;html=1;align=center;verticalAlign=middle;resizable=0;points=[];autosize=1;strokeColor=none;fillColor=none;" vertex="1" parent="1">
          <mxGeometry x="405" y="650" width="170" height="30" as="geometry" />
        </mxCell>
      </root>
    </mxGraphModel>
  </diagram>
</mxfile>
